<svg width="60" height="46" viewBox="0 0 60 46" fill="none" xmlns="http://www.w3.org/2000/svg">
<path d="M39.4737 38L46.5789 31.6842L59.2105 29.3158V45.1053H39.4737V38Z" fill="white"/>
<path d="M22.1053 4.05262C22.1053 2.30857 23.5191 0.89473 25.2632 0.89473H53.6842C57.1723 0.89473 60 3.7224 60 7.21052V13.5263C60 17.0144 57.1723 19.8421 53.6842 19.8421H25.2632C23.5191 19.8421 22.1053 18.4283 22.1053 16.6842V4.05262Z" fill="white"/>
<path d="M36.3158 19.0665L45.1029 11.9473L59.3802 29.5696L50.5931 36.6888L36.3158 19.0665Z" fill="white"/>
<path d="M37.8947 23H44.2105V24.5789H37.8947V23Z" fill="#D9D9D9"/>
<path d="M0 10.3684C0 9.9324 0.353459 9.57894 0.789474 9.57894H11.8421C12.2781 9.57894 12.6316 9.9324 12.6316 10.3684C12.6316 10.8044 12.2781 11.1579 11.8421 11.1579H0.789474C0.353459 11.1579 0 10.8044 0 10.3684Z" fill="black"/>
<path d="M52.2518 18.2631H53.6842V19.8421H51.4993L59.1781 29.3204L59.2105 29.3158V29.3605L59.3802 29.5696L59.2105 29.7074V45.1053H39.4737V38L46.5543 31.7042L40.7812 24.5789H37.8947V23H39.5014L36.9434 19.8421H25.2632V18.2631H34.7985L45.3361 9.72697L52.2518 18.2631ZM50.3598 38.9097L46.3677 33.9817L41.0526 38.7077V43.5263H57.6316V33.018L50.3598 38.9097ZM49.4362 32.7528L50.8255 34.4674L53.9957 31.8985L49.4362 32.7528ZM45.7895 21.421V26.1579H44.0933L47.1788 29.9649L56.2839 28.258L50.7453 21.421H45.7895ZM28.4211 10.3684C28.4211 8.62436 27.0072 7.21052 25.2632 7.21052H23.6842V13.5263H25.2632C27.0072 13.5263 28.4211 12.1125 28.4211 10.3684ZM39.816 18.2631H48.1872L44.8689 14.1678L39.816 18.2631ZM31.5789 10.3684C31.5789 13.8565 28.7513 16.6842 25.2632 16.6842H23.6842C23.6842 17.5562 24.3911 18.2631 25.2632 18.2631V19.8421C23.5191 19.8421 22.1053 18.4283 22.1053 16.6842V15.1053H15.7895V13.5263H20.5263V7.21052H15.7895C14.7557 7.21052 13.8398 7.70865 13.2638 8.47645C13.838 8.90863 14.2105 9.59437 14.2105 10.3684C14.2105 11.1421 13.8376 11.8266 13.2638 12.2588C13.8398 13.0272 14.7553 13.5263 15.7895 13.5263V15.1053C13.4424 15.1053 11.4948 13.3981 11.1189 11.1579H0.789474C0.353459 11.1579 0 10.8044 0 10.3684C0 9.9324 0.353459 9.57894 0.789474 9.57894H11.1189C11.4948 7.33871 13.4424 5.63157 15.7895 5.63157H22.1053V4.05262C22.1053 2.30857 23.5191 0.89473 25.2632 0.89473H53.6842C57.1723 0.89473 60 3.7224 60 7.21052V13.5263C60 17.0144 57.1723 19.8421 53.6842 19.8421V18.2631C56.3003 18.2631 58.4211 16.1424 58.4211 13.5263V7.21052C58.4211 4.59443 56.3003 2.47368 53.6842 2.47368H25.2632C24.4458 2.47368 23.773 3.09473 23.6919 3.89072L23.6842 4.05262H25.2632C28.7513 4.05262 31.5789 6.8803 31.5789 10.3684Z" fill="white"/>
</svg>
