<svg width="60" height="50" viewBox="0 0 60 50" fill="none" xmlns="http://www.w3.org/2000/svg">
<path d="M52.8 35.3313C56.7765 35.3313 60 38.6041 60 42.6413C60 46.6784 56.7765 49.9512 52.8 49.9512C48.8236 49.9512 45.6 46.6784 45.6 42.6413C45.6 38.6041 48.8236 35.3313 52.8 35.3313ZM52.8 41.047C51.806 41.047 51.0002 41.8653 51 42.8745C51 43.8838 51.8059 44.702 52.8 44.702C53.7941 44.702 54.6 43.8838 54.6 42.8745C54.5998 41.8653 53.794 41.047 52.8 41.047Z" fill="white"/>
<path d="M9 0.0487515C9.2 -0.154302 9.84 0.170584 10.8 3.09456C11.76 6.01858 15.6 18.9328 17.4 25.0244L43.2 28.0702C44.8 28.2732 48.24 29.5322 49.2 32.9435C45.6 34.1618 39.36 38.5477 43.2 46.345H20.4C21.6 43.0961 21.96 35.8674 13.8 32.9435V26.8518L7.8 3.70372H2.4C1.60001 3.50067 3.17889e-05 2.85088 0 1.87624C0 0.657913 1.2 0.0487515 2.4 0.0487515H9ZM25.8 38.9863C24.8059 38.9863 24 39.8045 24 40.8138C24 41.8231 24.8059 42.6413 25.8 42.6413H36.6C37.5941 42.6413 38.4 41.8231 38.4 40.8138C38.4 39.8045 37.5941 38.9863 36.6 38.9863H25.8ZM25.8 15.8869C29.8 16.09 38.4 16.4961 40.2 17.7144C41.9861 18.9233 42.6 22.5877 42.6 24.4152L21 21.9786C20.04 17.1053 23.8 15.8869 25.8 15.8869Z" fill="white"/>
<path d="M10.8 35.3801C14.7765 35.3801 18 38.6529 18 42.6901C18 46.7272 14.7765 50 10.8 50C6.82355 50 3.6 46.7272 3.6 42.6901C3.6 38.6529 6.82355 35.3801 10.8 35.3801ZM10.8 41.0958C9.80599 41.0958 9.00016 41.9141 9 42.9233C9 43.9325 9.80589 44.7507 10.8 44.7507C11.7941 44.7507 12.6 43.9325 12.6 42.9233C12.5998 41.9141 11.794 41.0958 10.8 41.0958Z" fill="white"/>
</svg>
