<svg width="60" height="60" viewBox="0 0 60 60" fill="none" xmlns="http://www.w3.org/2000/svg">
<mask id="path-1-inside-1_144_1618" fill="white">
<path d="M18.75 9.8551V14.3551H16.75V14.0933V11.8551H9.25V15.0121V16.3551H7.25V9.8551H18.75ZM51.25 9.8551V15.3551H49.25V14.432V11.8551H41.25V14.1808V14.8551H39.25V9.8551H51.25Z"/>
<path d="M39.5244 14.64C40.1103 14.455 40.6857 14.3028 41.25 14.1808C44.2704 13.5277 46.9726 13.7407 49.25 14.432C50.1411 14.7024 50.9671 15.0461 51.7217 15.4398C53.2381 16.231 54.4686 17.2253 55.3594 18.2337C56.1823 19.1654 56.7572 20.158 56.9551 21.0541L56.9902 21.2318L56.9941 21.2552L56.9961 21.2787L59 40.8168V42.8744L58.999 42.8949C58.8917 44.9323 58.2628 46.5145 57.2793 47.6781C56.2985 48.8383 55.0074 49.5329 53.6572 49.8705C51.0014 50.5344 47.9733 49.8509 46.2695 48.431L46.2041 48.3763L46.1533 48.3089L36.8779 36.1048H24.5791L13.3018 48.3627L13.2549 48.4134L13.2002 48.4554C11.5856 49.6664 9.98781 50.1707 8.48633 50.1439C6.99217 50.1172 5.66 49.5655 4.5625 48.7767C3.46769 47.9898 2.58668 46.9541 1.97754 45.9134C1.37634 44.8863 1 43.7849 1 42.8548V42.8207L1.00293 42.7855L3.00293 21.2855L3.01172 21.1927L3.04297 21.1058C4.21178 17.7942 6.63646 15.9713 9.25 15.0121C10.2904 14.6302 11.0491 14.2409 12.082 14.0933C13.6573 13.8683 15.4899 14.0071 16.75 14.0933C16.9471 14.1068 17.1378 14.1225 17.3213 14.14C18.0006 14.2047 18.5889 14.2937 19.0459 14.3851C19.3643 14.4488 19.663 14.5218 19.8877 14.6019L20.085 14.6839L20.1143 14.6996L24.4434 17.1048H35.5352L39.3525 14.7191L39.4336 14.6683L39.5244 14.64ZM51.0283 16.7699C48.3394 15.367 44.5762 14.6427 40.0635 16.0433L35.9648 18.6048H24.0557L23.8857 18.5111L19.4072 16.0228C19.3889 16.0158 19.3367 15.9968 19.2373 15.9691C19.116 15.9353 18.9525 15.8961 18.751 15.8558C18.3487 15.7754 17.8116 15.6934 17.1787 15.6332C15.9107 15.5124 14.2847 15.4833 12.6064 15.723C9.25847 16.2013 5.87241 17.7129 4.4873 21.5218L2.50098 42.8783C2.5076 43.4476 2.75586 44.2731 3.27246 45.1556C3.78832 46.0369 4.53231 46.9083 5.4375 47.5589C6.33989 48.2075 7.38305 48.6237 8.51367 48.6439C9.62336 48.6637 10.8823 48.3015 12.248 47.2914L23.9209 34.6048H37.6221L37.8467 34.9017L47.2842 47.3197C48.595 48.3732 51.0787 48.9689 53.293 48.4154C54.3927 48.1404 55.3896 47.5906 56.1338 46.7103C56.8731 45.8357 57.4052 44.5844 57.5 42.8295V40.8939L56.5034 31.181L55.5068 21.4681C55.4104 20.9099 55.0079 20.1026 54.2344 19.2269C53.469 18.3604 52.3869 17.4787 51.0283 16.7699ZM15 23.1048C15 22.4195 14.761 21.9708 14.4619 21.6966C14.153 21.4136 13.7285 21.2693 13.2871 21.2914C12.8482 21.3134 12.4108 21.4996 12.082 21.8558C11.7581 22.2068 11.5 22.7671 11.5 23.6048V25.1048H10.125C8.41493 25.1048 7.87512 26.0084 7.875 26.6048C7.875 27.2013 8.41474 28.1048 10.125 28.1048H11.5V29.6966C11.5001 30.5362 11.7592 31.0753 12.0693 31.3949C12.3828 31.7178 12.7989 31.8713 13.2227 31.8558C14.0273 31.8265 14.9999 31.1538 15 29.514V28.1048H16.5L16.7539 28.0951C17.3206 28.0486 17.7041 27.8471 17.9482 27.6117C18.2324 27.3376 18.375 26.973 18.375 26.6048C18.3749 26.2367 18.2324 25.8721 17.9482 25.598C17.7041 25.3625 17.3206 25.1621 16.7539 25.1156L16.5 25.1048H15V23.1048ZM16.5 23.6048C17.5414 23.6048 18.3933 23.9434 18.9893 24.5179C19.5799 25.0875 19.8749 25.8482 19.875 26.6048C19.875 27.3616 19.58 28.1221 18.9893 28.6918C18.4306 29.2305 17.6472 29.5616 16.6934 29.6009L16.5 29.6048H16.498C16.4593 31.9104 14.9508 33.2938 13.2773 33.3548C12.4511 33.385 11.6172 33.0827 10.9932 32.4398C10.3661 31.7937 10.0001 30.8563 10 29.6966V29.6019C7.78227 29.5538 6.375 28.2281 6.375 26.6048C6.37511 24.9816 7.78234 23.6549 10 23.6068V23.6048C10 22.4429 10.367 21.5029 10.9805 20.8382C11.5891 20.1791 12.4021 19.8339 13.2129 19.7933C14.0213 19.753 14.8471 20.015 15.4756 20.5912C16.1139 21.1763 16.4999 22.0404 16.5 23.1048V23.6048Z"/>
<path d="M24.75 22.8551C24.75 22.3028 25.1977 21.8551 25.75 21.8551H27.75C28.3023 21.8551 28.75 22.3028 28.75 22.8551C28.75 23.4074 28.3023 23.8551 27.75 23.8551H25.75C25.1977 23.8551 24.75 23.4074 24.75 22.8551Z"/>
<path d="M31.75 22.8551C31.75 22.3028 32.1977 21.8551 32.75 21.8551H34.75C35.3023 21.8551 35.75 22.3028 35.75 22.8551C35.75 23.4074 35.3023 23.8551 34.75 23.8551H32.75C32.1977 23.8551 31.75 23.4074 31.75 22.8551Z"/>
<path fill-rule="evenodd" clip-rule="evenodd" d="M51.0283 16.7699C48.3394 15.367 44.5762 14.6427 40.0635 16.0433L35.9648 18.6048H24.0557L23.8857 18.5111L19.4072 16.0228C19.3889 16.0158 19.3367 15.9968 19.2373 15.9691C19.116 15.9353 18.9525 15.8961 18.751 15.8558C18.3487 15.7754 17.8116 15.6934 17.1787 15.6332C15.9107 15.5124 14.2847 15.4833 12.6064 15.723C9.25847 16.2013 5.87241 17.7129 4.4873 21.5218L2.50098 42.8783C2.5076 43.4476 2.75586 44.2731 3.27246 45.1556C3.78832 46.0369 4.53231 46.9083 5.4375 47.5589C6.33989 48.2075 7.38305 48.6237 8.51367 48.6439C9.62336 48.6637 10.8823 48.3015 12.248 47.2914L23.9209 34.6048H37.6221L37.8467 34.9017L47.2842 47.3197C48.595 48.3732 51.0787 48.9689 53.293 48.4154C54.3927 48.1404 55.3896 47.5906 56.1338 46.7103C56.8731 45.8357 57.4052 44.5844 57.5 42.8295V40.8939L56.5034 31.181L55.5068 21.4681C55.4104 20.9099 55.0079 20.1026 54.2344 19.2269C53.469 18.3604 52.3869 17.4787 51.0283 16.7699ZM18.9893 24.5179C18.3933 23.9434 17.5414 23.6048 16.5 23.6048V23.1048C16.4999 22.0404 16.1139 21.1763 15.4756 20.5912C14.8471 20.015 14.0213 19.753 13.2129 19.7933C12.4021 19.8339 11.5891 20.1791 10.9805 20.8382C10.367 21.5029 10 22.4429 10 23.6048V23.6068C7.78234 23.6549 6.37511 24.9816 6.375 26.6048C6.375 28.2281 7.78227 29.5538 10 29.6019V29.6966C10.0001 30.8563 10.3661 31.7937 10.9932 32.4398C11.6172 33.0827 12.4511 33.385 13.2773 33.3548C14.9508 33.2938 16.4593 31.9104 16.498 29.6048H16.5L16.6934 29.6009C17.6472 29.5616 18.4306 29.2305 18.9893 28.6918C19.58 28.1221 19.875 27.3616 19.875 26.6048C19.8749 25.8482 19.5799 25.0875 18.9893 24.5179ZM27.75 21.8551H25.75C25.1977 21.8551 24.75 22.3028 24.75 22.8551C24.75 23.4074 25.1977 23.8551 25.75 23.8551H27.75C28.3023 23.8551 28.75 23.4074 28.75 22.8551C28.75 22.3028 28.3023 21.8551 27.75 21.8551ZM34.75 21.8551H32.75C32.1977 21.8551 31.75 22.3028 31.75 22.8551C31.75 23.4074 32.1977 23.8551 32.75 23.8551H34.75C35.3023 23.8551 35.75 23.4074 35.75 22.8551C35.75 22.3028 35.3023 21.8551 34.75 21.8551ZM45.9208 33.8551L45.7665 33.8512C44.2323 33.7737 43.0025 32.5436 42.9247 31.0094L42.9208 30.8551C42.9208 29.1982 44.264 27.8551 45.9208 27.8551L46.0751 27.859C47.66 27.9395 48.9208 29.2501 48.9208 30.8551L48.9169 31.0094C48.8366 32.5944 47.5257 33.8549 45.9208 33.8551ZM41.25 29.3551L41.0957 29.3512C39.5617 29.2735 38.3317 28.0434 38.2539 26.5094L38.25 26.3551C38.25 24.6982 39.5931 23.3551 41.25 23.3551L41.4043 23.359C42.9894 23.4393 44.2499 24.75 44.2499 26.3551L44.246 26.5094C44.1657 28.0945 42.855 29.3551 41.25 29.3551ZM50.7498 29.3551L50.5955 29.3512C49.0614 29.2736 47.8315 28.0435 47.7538 26.5094L47.7499 26.3551C47.7499 24.6983 49.093 23.3551 50.7498 23.3551L50.9041 23.359C52.4891 23.4394 53.7497 24.7501 53.7498 26.3551L53.7459 26.5094C53.6656 28.0945 52.3549 29.355 50.7498 29.3551ZM45.7499 24.8551L45.5956 24.8512C44.0615 24.7736 42.8316 23.5435 42.7538 22.0094L42.7499 21.8551C42.7499 20.1982 44.0931 18.8551 45.7499 18.8551L45.9042 18.859C47.4892 18.9394 48.7499 20.2501 48.7499 21.8551L48.746 22.0094C48.6657 23.5945 47.3549 24.855 45.7499 24.8551Z"/>
<path d="M49.25 14.432V11.8551H41.25V14.1808C44.2704 13.5277 46.9726 13.7407 49.25 14.432Z"/>
<path d="M16.75 14.0933V11.8551H9.25V15.0121C10.2904 14.6302 11.0491 14.2409 12.082 14.0933C13.6573 13.8683 15.4899 14.0071 16.75 14.0933Z"/>
</mask>
<path d="M18.75 9.8551V14.3551H16.75V14.0933V11.8551H9.25V15.0121V16.3551H7.25V9.8551H18.75ZM51.25 9.8551V15.3551H49.25V14.432V11.8551H41.25V14.1808V14.8551H39.25V9.8551H51.25Z" fill="white"/>
<path fill-rule="evenodd" clip-rule="evenodd" d="M51.0283 16.7699C48.3394 15.367 44.5762 14.6427 40.0635 16.0433L35.9648 18.6048H24.0557L23.8857 18.5111L19.4072 16.0228C19.3889 16.0158 19.3367 15.9968 19.2373 15.9691C19.116 15.9353 18.9525 15.8961 18.751 15.8558C18.3487 15.7754 17.8116 15.6934 17.1787 15.6332C15.9107 15.5124 14.2847 15.4833 12.6064 15.723C9.25847 16.2013 5.87241 17.7129 4.4873 21.5218L2.50098 42.8783C2.5076 43.4476 2.75586 44.2731 3.27246 45.1556C3.78832 46.0369 4.53231 46.9083 5.4375 47.5589C6.33989 48.2075 7.38305 48.6237 8.51367 48.6439C9.62336 48.6637 10.8823 48.3015 12.248 47.2914L23.9209 34.6048H37.6221L37.8467 34.9017L47.2842 47.3197C48.595 48.3732 51.0787 48.9689 53.293 48.4154C54.3927 48.1404 55.3896 47.5906 56.1338 46.7103C56.8731 45.8357 57.4052 44.5844 57.5 42.8295V40.8939L56.5034 31.181L55.5068 21.4681C55.4104 20.9099 55.0079 20.1026 54.2344 19.2269C53.469 18.3604 52.3869 17.4787 51.0283 16.7699ZM18.9893 24.5179C18.3933 23.9434 17.5414 23.6048 16.5 23.6048V23.1048C16.4999 22.0404 16.1139 21.1763 15.4756 20.5912C14.8471 20.015 14.0213 19.753 13.2129 19.7933C12.4021 19.8339 11.5891 20.1791 10.9805 20.8382C10.367 21.5029 10 22.4429 10 23.6048V23.6068C7.78234 23.6549 6.37511 24.9816 6.375 26.6048C6.375 28.2281 7.78227 29.5538 10 29.6019V29.6966C10.0001 30.8563 10.3661 31.7937 10.9932 32.4398C11.6172 33.0827 12.4511 33.385 13.2773 33.3548C14.9508 33.2938 16.4593 31.9104 16.498 29.6048H16.5L16.6934 29.6009C17.6472 29.5616 18.4306 29.2305 18.9893 28.6918C19.58 28.1221 19.875 27.3616 19.875 26.6048C19.8749 25.8482 19.5799 25.0875 18.9893 24.5179ZM27.75 21.8551H25.75C25.1977 21.8551 24.75 22.3028 24.75 22.8551C24.75 23.4074 25.1977 23.8551 25.75 23.8551H27.75C28.3023 23.8551 28.75 23.4074 28.75 22.8551C28.75 22.3028 28.3023 21.8551 27.75 21.8551ZM34.75 21.8551H32.75C32.1977 21.8551 31.75 22.3028 31.75 22.8551C31.75 23.4074 32.1977 23.8551 32.75 23.8551H34.75C35.3023 23.8551 35.75 23.4074 35.75 22.8551C35.75 22.3028 35.3023 21.8551 34.75 21.8551ZM45.9208 33.8551L45.7665 33.8512C44.2323 33.7737 43.0025 32.5436 42.9247 31.0094L42.9208 30.8551C42.9208 29.1982 44.264 27.8551 45.9208 27.8551L46.0751 27.859C47.66 27.9395 48.9208 29.2501 48.9208 30.8551L48.9169 31.0094C48.8366 32.5944 47.5257 33.8549 45.9208 33.8551ZM41.25 29.3551L41.0957 29.3512C39.5617 29.2735 38.3317 28.0434 38.2539 26.5094L38.25 26.3551C38.25 24.6982 39.5931 23.3551 41.25 23.3551L41.4043 23.359C42.9894 23.4393 44.2499 24.75 44.2499 26.3551L44.246 26.5094C44.1657 28.0945 42.855 29.3551 41.25 29.3551ZM50.7498 29.3551L50.5955 29.3512C49.0614 29.2736 47.8315 28.0435 47.7538 26.5094L47.7499 26.3551C47.7499 24.6983 49.093 23.3551 50.7498 23.3551L50.9041 23.359C52.4891 23.4394 53.7497 24.7501 53.7498 26.3551L53.7459 26.5094C53.6656 28.0945 52.3549 29.355 50.7498 29.3551ZM45.7499 24.8551L45.5956 24.8512C44.0615 24.7736 42.8316 23.5435 42.7538 22.0094L42.7499 21.8551C42.7499 20.1982 44.0931 18.8551 45.7499 18.8551L45.9042 18.859C47.4892 18.9394 48.7499 20.2501 48.7499 21.8551L48.746 22.0094C48.6657 23.5945 47.3549 24.855 45.7499 24.8551Z" fill="white"/>
<path d="M49.25 14.432V11.8551H41.25V14.1808C44.2704 13.5277 46.9726 13.7407 49.25 14.432Z" fill="white"/>
<path d="M16.75 14.0933V11.8551H9.25V15.0121C10.2904 14.6302 11.0491 14.2409 12.082 14.0933C13.6573 13.8683 15.4899 14.0071 16.75 14.0933Z" fill="white"/>
<path d="M16.75 11.8551H17.25V11.3551H16.75V11.8551ZM9.25 11.8551V11.3551H8.75V11.8551H9.25ZM49.25 11.8551H49.75V11.3551H49.25V11.8551ZM41.25 11.8551V11.3551H40.75V11.8551H41.25ZM12.082 14.0933L12.0113 13.5983L12.0113 13.5983L12.082 14.0933ZM51.0283 16.7699L51.2596 16.3266L51.2596 16.3266L51.0283 16.7699ZM40.0635 16.0433L39.9153 15.5658L39.8534 15.585L39.7985 15.6193L40.0635 16.0433ZM35.9648 18.6048V19.1048H36.1082L36.2298 19.0288L35.9648 18.6048ZM24.0557 18.6048L23.8141 19.0426L23.9269 19.1048H24.0557V18.6048ZM23.8857 18.5111L23.6429 18.9482L23.6442 18.9489L23.8857 18.5111ZM19.4072 16.0228L19.6501 15.5857L19.6193 15.5686L19.5864 15.556L19.4072 16.0228ZM19.2373 15.9691L19.3717 15.4875L19.3716 15.4875L19.2373 15.9691ZM18.751 15.8558L18.849 15.3655L18.849 15.3655L18.751 15.8558ZM17.1787 15.6332L17.2261 15.1354L17.2261 15.1354L17.1787 15.6332ZM12.6064 15.723L12.5357 15.228L12.5357 15.228L12.6064 15.723ZM4.4873 21.5218L4.01741 21.351L3.99541 21.4114L3.98945 21.4755L4.4873 21.5218ZM2.50098 42.8783L2.00313 42.832L2.00071 42.858L2.00101 42.8841L2.50098 42.8783ZM3.27246 45.1556L2.84095 45.4082L2.84095 45.4082L3.27246 45.1556ZM5.4375 47.5589L5.14568 47.9649L5.14568 47.965L5.4375 47.5589ZM8.51367 48.6439L8.50475 49.1438H8.50478L8.51367 48.6439ZM12.248 47.2914L12.5454 47.6934L12.5837 47.665L12.616 47.6299L12.248 47.2914ZM23.9209 34.6048V34.1048H23.7015L23.553 34.2663L23.9209 34.6048ZM37.6221 34.6048L38.0208 34.3032L37.8708 34.1048H37.6221V34.6048ZM37.8467 34.9017L37.4479 35.2034L37.4486 35.2043L37.8467 34.9017ZM47.2842 47.3197L46.8861 47.6222L46.9232 47.671L46.971 47.7094L47.2842 47.3197ZM53.293 48.4154L53.4142 48.9005L53.4142 48.9005L53.293 48.4154ZM56.1338 46.7103L56.5156 47.0331L56.5156 47.0331L56.1338 46.7103ZM57.5 42.8295L57.9993 42.8564L58 42.8429V42.8295H57.5ZM57.5 40.8939H58V40.8683L57.9974 40.8429L57.5 40.8939ZM55.5068 21.4681L56.0042 21.4171L56.0025 21.4L55.9995 21.3831L55.5068 21.4681ZM54.2344 19.2269L54.6091 18.8959V18.8959L54.2344 19.2269ZM16.5 23.6048H16V24.1048H16.5V23.6048ZM18.9893 24.5179L19.3363 24.158L19.3363 24.158L18.9893 24.5179ZM19.875 26.6048H20.375V26.6048L19.875 26.6048ZM18.9893 28.6918L19.3363 29.0517L19.3363 29.0517L18.9893 28.6918ZM16.6934 29.6009L16.7035 30.1009L16.714 30.1005L16.6934 29.6009ZM16.5 29.6048V30.1049L16.5101 30.1047L16.5 29.6048ZM16.498 29.6048V29.1048H16.0064L15.9981 29.5964L16.498 29.6048ZM13.2773 33.3548L13.2956 33.8545L13.2773 33.3548ZM10.9932 32.4398L10.6344 32.788L10.6344 32.7881L10.9932 32.4398ZM10 29.6966H9.5V29.6967L10 29.6966ZM10 29.6019H10.5V29.1126L10.0108 29.102L10 29.6019ZM6.375 26.6048L5.875 26.6048V26.6048H6.375ZM10 23.6068L10.0108 24.1067L10.5 24.0961V23.6068H10ZM10 23.6048L9.5 23.6048V23.6048H10ZM10.9805 20.8382L10.6131 20.4991L10.6131 20.4991L10.9805 20.8382ZM13.2129 19.7933L13.188 19.2939L13.1879 19.2939L13.2129 19.7933ZM15.4756 20.5912L15.8134 20.2226L15.8134 20.2226L15.4756 20.5912ZM16.5 23.1048H17V23.1048L16.5 23.1048ZM45.9208 29.3551L45.9209 28.8551H45.9208V29.3551ZM42.7499 26.3551L43.2499 26.3551V26.3551H42.7499ZM39.75 26.3551H39.25V26.3551L39.75 26.3551ZM52.2498 26.3551H52.7498V26.3551L52.2498 26.3551ZM50.7498 24.8551L50.7499 24.3551H50.7498V24.8551ZM49.2499 26.3551L48.7499 26.3551V26.3551H49.2499ZM45.7499 20.3551L45.75 19.8551H45.7499V20.3551ZM49.25 14.432L49.1048 14.9104L49.75 15.1063V14.432H49.25ZM41.25 14.1808H40.75V14.8004L41.3557 14.6695L41.25 14.1808ZM16.75 14.0933L16.7159 14.5921L17.25 14.6287V14.0933H16.75ZM9.25 15.0121H8.75V15.7282L9.42228 15.4815L9.25 15.0121ZM16.75 11.8551V11.3551H9.25V11.8551V12.3551H16.75V11.8551ZM49.25 11.8551V11.3551H41.25V11.8551V12.3551H49.25V11.8551ZM51.0283 16.7699L51.2596 16.3266C48.459 14.8654 44.5597 14.1243 39.9153 15.5658L40.0635 16.0433L40.2117 16.5208C44.5928 15.1611 48.2198 15.8685 50.797 17.2132L51.0283 16.7699ZM35.9648 18.6048V18.1048H24.0557V18.6048V19.1048H35.9648V18.6048ZM24.0557 18.6048L24.2972 18.1671L24.1273 18.0733L23.8857 18.5111L23.6442 18.9489L23.8141 19.0426L24.0557 18.6048ZM23.8857 18.5111L24.1286 18.074L19.6501 15.5857L19.4072 16.0228L19.1644 16.4599L23.6429 18.9482L23.8857 18.5111ZM19.4072 16.0228L19.5864 15.556C19.5515 15.5426 19.4841 15.5189 19.3717 15.4875L19.2373 15.9691L19.1029 16.4507C19.1893 16.4748 19.2263 16.4889 19.228 16.4896L19.4072 16.0228ZM19.2373 15.9691L19.3716 15.4875C19.2357 15.4496 19.0598 15.4077 18.849 15.3655L18.751 15.8558L18.6529 16.3461C18.8452 16.3846 18.9962 16.4209 19.103 16.4507L19.2373 15.9691ZM18.751 15.8558L18.849 15.3655C18.4282 15.2814 17.8741 15.1971 17.2261 15.1354L17.1787 15.6332L17.1313 16.1309C17.7491 16.1897 18.2691 16.2694 18.6529 16.3461L18.751 15.8558ZM17.1787 15.6332L17.2261 15.1354C15.9285 15.0118 14.2616 14.9815 12.5357 15.228L12.6064 15.723L12.6771 16.218C14.3077 15.9851 15.893 16.013 17.1313 16.1309L17.1787 15.6332ZM12.6064 15.723L12.5357 15.228C9.10269 15.7185 5.49332 17.2923 4.01741 21.351L4.4873 21.5218L4.9572 21.6927C6.25149 18.1335 9.41425 16.6841 12.6772 16.218L12.6064 15.723ZM4.4873 21.5218L3.98945 21.4755L2.00313 42.832L2.50098 42.8783L2.99883 42.9246L4.98516 21.5681L4.4873 21.5218ZM2.50098 42.8783L2.00101 42.8841C2.00899 43.5697 2.29828 44.4811 2.84095 45.4082L3.27246 45.1556L3.70397 44.903C3.21343 44.065 3.00622 43.3255 3.00094 42.8725L2.50098 42.8783ZM3.27246 45.1556L2.84095 45.4082C3.38779 46.3424 4.17712 47.2688 5.14568 47.9649L5.4375 47.5589L5.72932 47.1529C4.8875 46.5479 4.18885 45.7314 3.70397 44.903L3.27246 45.1556ZM5.4375 47.5589L5.14568 47.965C6.11346 48.6605 7.2532 49.1215 8.50475 49.1438L8.51367 48.6439L8.5226 48.144C7.51289 48.126 6.56632 47.7545 5.72932 47.1529L5.4375 47.5589ZM8.51367 48.6439L8.50478 49.1438C9.73903 49.1658 11.1036 48.7598 12.5454 47.6934L12.248 47.2914L11.9507 46.8894C10.6611 47.8432 9.50769 48.1615 8.52257 48.144L8.51367 48.6439ZM23.9209 34.6048V35.1048H37.6221V34.6048V34.1048H23.9209V34.6048ZM37.6221 34.6048L37.2233 34.9065L37.4479 35.2034L37.8467 34.9017L38.2454 34.6L38.0208 34.3032L37.6221 34.6048ZM37.8467 34.9017L37.4486 35.2043L46.8861 47.6222L47.2842 47.3197L47.6823 47.0171L38.2448 34.5992L37.8467 34.9017ZM47.2842 47.3197L46.971 47.7094C48.4148 48.8698 51.0625 49.4883 53.4142 48.9005L53.293 48.4154L53.1717 47.9303C51.0949 48.4494 48.7753 47.8766 47.5974 46.9299L47.2842 47.3197ZM53.293 48.4154L53.4142 48.9005C54.5975 48.6046 55.6926 48.0067 56.5156 47.0331L56.1338 46.7103L55.7519 46.3875C55.0867 47.1745 54.1879 47.6763 53.1717 47.9303L53.293 48.4154ZM56.1338 46.7103L56.5156 47.0331C57.3356 46.0631 57.8995 44.703 57.9993 42.8564L57.5 42.8295L57.0007 42.8025C56.9109 44.4659 56.4106 45.6083 55.7519 46.3875L56.1338 46.7103ZM57.5 42.8295H58V40.8939H57.5H57V42.8295H57.5ZM55.5068 21.4681L55.9995 21.3831C55.8815 20.6995 55.4162 19.8096 54.6091 18.8959L54.2344 19.2269L53.8596 19.5579C54.5995 20.3956 54.9394 21.1202 55.0141 21.5532L55.5068 21.4681ZM54.2344 19.2269L54.6091 18.8959C53.802 17.9822 52.6709 17.0629 51.2596 16.3266L51.0283 16.7699L50.797 17.2132C52.1028 17.8945 53.1359 18.7386 53.8596 19.5579L54.2344 19.2269ZM16.5 23.6048V24.1048C17.4306 24.1048 18.1521 24.4053 18.6422 24.8779L18.9893 24.5179L19.3363 24.158C18.6345 23.4814 17.6523 23.1048 16.5 23.1048V23.6048ZM18.9893 24.5179L18.6422 24.8778C19.1306 25.3488 19.375 25.9776 19.375 26.6049L19.875 26.6048L20.375 26.6048C20.3749 25.7188 20.0292 24.8262 19.3363 24.158L18.9893 24.5179ZM19.875 26.6048H19.375C19.375 27.2322 19.1307 27.8608 18.6422 28.3318L18.9893 28.6918L19.3363 29.0517C20.0293 28.3835 20.375 27.491 20.375 26.6048H19.875ZM18.9893 28.6918L18.6422 28.3318C18.1822 28.7754 17.52 29.0664 16.6727 29.1014L16.6934 29.6009L16.714 30.1005C17.7744 30.0568 18.679 29.6856 19.3363 29.0517L18.9893 28.6918ZM16.6934 29.6009L16.6833 29.101L16.4899 29.1049L16.5 29.6048L16.5101 30.1047L16.7035 30.1008L16.6934 29.6009ZM16.5 29.6048V29.1048H16.498V29.6048V30.1048H16.5V29.6048ZM16.498 29.6048L15.9981 29.5964C15.9634 31.6653 14.6388 32.8049 13.2591 32.8552L13.2773 33.3548L13.2956 33.8545C15.2627 33.7828 16.9553 32.1555 16.998 29.6132L16.498 29.6048ZM13.2773 33.3548L13.2591 32.8552C12.5672 32.8804 11.8725 32.6279 11.3519 32.0915L10.9932 32.4398L10.6344 32.7881C11.3619 33.5375 12.3351 33.8895 13.2956 33.8545L13.2773 33.3548ZM10.9932 32.4398L11.352 32.0916C10.8306 31.5544 10.5001 30.7498 10.5 29.6966L10 29.6966L9.5 29.6967C9.5001 30.9628 9.90156 32.033 10.6344 32.788L10.9932 32.4398ZM10 29.6966H10.5V29.6019H10H9.5V29.6966H10ZM10 29.6019L10.0108 29.102C7.9808 29.058 6.875 27.8792 6.875 26.6048H6.375H5.875C5.875 28.5771 7.58374 30.0496 9.98916 30.1018L10 29.6019ZM6.375 26.6048L6.875 26.6049C6.87509 25.3304 7.98114 24.1507 10.0108 24.1067L10 23.6068L9.98916 23.1069C7.58355 23.1591 5.87514 24.6329 5.875 26.6048L6.375 26.6048ZM10 23.6068H10.5V23.6048H10H9.5V23.6068H10ZM10 23.6048L10.5 23.6049C10.5 22.5508 10.8309 21.7374 11.3479 21.1774L10.9805 20.8382L10.6131 20.4991C9.90299 21.2683 9.50004 22.3349 9.5 23.6048L10 23.6048ZM10.9805 20.8382L11.3478 21.1774C11.8631 20.6193 12.5509 20.327 13.2379 20.2927L13.2129 19.7933L13.1879 19.2939C12.2532 19.3407 11.315 19.7389 10.6131 20.4991L10.9805 20.8382ZM13.2129 19.7933L13.2378 20.2927C13.924 20.2585 14.6159 20.4814 15.1377 20.9597L15.4756 20.5912L15.8134 20.2226C15.0783 19.5487 14.1186 19.2475 13.188 19.2939L13.2129 19.7933ZM15.4756 20.5912L15.1377 20.9597C15.6628 21.4411 16 22.1665 16 23.1049L16.5 23.1048L17 23.1048C16.9999 21.9143 16.565 20.9115 15.8134 20.2226L15.4756 20.5912ZM16.5 23.1048H16V23.6048H16.5H17V23.1048H16.5ZM40.0635 16.0433L39.7985 15.6193L35.6999 18.1808L35.9648 18.6048L36.2298 19.0288L40.3285 16.4673L40.0635 16.0433ZM12.248 47.2914L12.616 47.6299L24.2888 34.9434L23.9209 34.6048L23.553 34.2663L11.8801 46.9528L12.248 47.2914ZM25.75 21.8551V22.3551H27.75V21.8551V21.3551H25.75V21.8551ZM27.75 23.8551V23.3551H25.75V23.8551V24.3551H27.75V23.8551ZM25.75 23.8551V23.3551C25.4739 23.3551 25.25 23.1312 25.25 22.8551H24.75H24.25C24.25 23.6835 24.9216 24.3551 25.75 24.3551V23.8551ZM28.75 22.8551H28.25C28.25 23.1312 28.0261 23.3551 27.75 23.3551V23.8551V24.3551C28.5784 24.3551 29.25 23.6835 29.25 22.8551H28.75ZM27.75 21.8551V22.3551C28.0261 22.3551 28.25 22.579 28.25 22.8551H28.75H29.25C29.25 22.0267 28.5784 21.3551 27.75 21.3551V21.8551ZM25.75 21.8551V21.3551C24.9216 21.3551 24.25 22.0267 24.25 22.8551H24.75H25.25C25.25 22.579 25.4739 22.3551 25.75 22.3551V21.8551ZM32.75 21.8551V22.3551H34.75V21.8551V21.3551H32.75V21.8551ZM34.75 23.8551V23.3551H32.75V23.8551V24.3551H34.75V23.8551ZM32.75 23.8551V23.3551C32.4739 23.3551 32.25 23.1312 32.25 22.8551H31.75H31.25C31.25 23.6835 31.9216 24.3551 32.75 24.3551V23.8551ZM35.75 22.8551H35.25C35.25 23.1312 35.0261 23.3551 34.75 23.3551V23.8551V24.3551C35.5784 24.3551 36.25 23.6835 36.25 22.8551H35.75ZM34.75 21.8551V22.3551C35.0261 22.3551 35.25 22.579 35.25 22.8551H35.75H36.25C36.25 22.0267 35.5784 21.3551 34.75 21.3551V21.8551ZM32.75 21.8551V21.3551C31.9216 21.3551 31.25 22.0267 31.25 22.8551H31.75H32.25C32.25 22.579 32.4739 22.3551 32.75 22.3551V21.8551ZM47.4208 30.8551H47.9208C47.9208 29.7505 47.0251 28.8554 45.9209 28.8551L45.9208 29.3551L45.9207 29.8551C46.473 29.8552 46.9208 30.3031 46.9208 30.8551H47.4208ZM45.9208 29.3551V28.8551C44.8162 28.8551 43.9208 29.7505 43.9208 30.8551H44.4208H44.9208C44.9208 30.3028 45.3685 29.8551 45.9208 29.8551V29.3551ZM44.4208 30.8551H43.9208C43.9208 31.9597 44.8162 32.8551 45.9208 32.8551V32.3551V31.8551C45.3685 31.8551 44.9208 31.4074 44.9208 30.8551H44.4208ZM45.9208 32.3551H45.4208V33.8551H45.9208H46.4208V32.3551H45.9208ZM45.9208 32.3551L45.9209 32.8551C47.0251 32.8548 47.9208 31.9597 47.9208 30.8551H47.4208H46.9208C46.9208 31.4071 46.473 31.855 45.9207 31.8551L45.9208 32.3551ZM42.7499 26.3551H43.2499C43.2499 25.2505 42.3545 24.3551 41.25 24.3551V24.8551V25.3551C41.8022 25.3551 42.2499 25.8028 42.2499 26.3551H42.7499ZM41.25 24.8551V24.3551C40.1454 24.3551 39.25 25.2505 39.25 26.3551H39.75H40.25C40.25 25.8028 40.6977 25.3551 41.25 25.3551V24.8551ZM39.75 26.3551L39.25 26.3551C39.25 27.4596 40.1454 28.3551 41.25 28.3551V27.8551V27.3551C40.6977 27.3551 40.25 26.9074 40.25 26.3551L39.75 26.3551ZM41.25 27.8551H40.75V29.3551H41.25H41.75V27.8551H41.25ZM41.25 27.8551V28.3551C42.3545 28.3551 43.2499 27.4596 43.2499 26.3551L42.7499 26.3551L42.2499 26.3551C42.2499 26.9074 41.8022 27.3551 41.25 27.3551V27.8551ZM52.2498 26.3551L52.7498 26.3551C52.7498 25.2506 51.8543 24.3552 50.7499 24.3551L50.7498 24.8551L50.7498 25.3551C51.302 25.3552 51.7498 25.803 51.7498 26.3551L52.2498 26.3551ZM50.7498 24.8551V24.3551C49.6453 24.3551 48.7499 25.2506 48.7499 26.3551L49.2499 26.3551L49.7499 26.3551C49.7499 25.8028 50.1976 25.3551 50.7498 25.3551V24.8551ZM49.2499 26.3551H48.7499C48.7499 27.4597 49.6453 28.3551 50.7498 28.3551V27.8551V27.3551C50.1976 27.3551 49.7499 26.9074 49.7499 26.3551H49.2499ZM50.7498 27.8551H50.2498V29.3551H50.7498H51.2498V27.8551H50.7498ZM50.7498 27.8551L50.7499 28.3551C51.8543 28.355 52.7498 27.4597 52.7498 26.3551H52.2498H51.7498C51.7498 26.9073 51.3021 27.355 50.7498 27.3551L50.7498 27.8551ZM47.2499 21.8551H47.7499C47.7499 20.7505 46.8543 19.8552 45.75 19.8551L45.7499 20.3551L45.7498 20.8551C46.3021 20.8552 46.7499 21.3029 46.7499 21.8551H47.2499ZM45.7499 20.3551V19.8551C44.6453 19.8551 43.7499 20.7505 43.7499 21.8551H44.2499H44.7499C44.7499 21.3028 45.1976 20.8551 45.7499 20.8551V20.3551ZM44.2499 21.8551H43.7499C43.7499 22.9597 44.6453 23.8551 45.7499 23.8551V23.3551V22.8551C45.1976 22.8551 44.7499 22.4074 44.7499 21.8551H44.2499ZM45.7499 23.3551H45.2499V24.8551H45.7499H46.2499V23.3551H45.7499ZM45.7499 23.3551L45.75 23.8551C46.8543 23.855 47.7499 22.9597 47.7499 21.8551H47.2499H46.7499C46.7499 22.4073 46.3021 22.855 45.7498 22.8551L45.7499 23.3551ZM49.25 14.432H49.75V11.8551H49.25H48.75V14.432H49.25ZM41.25 11.8551H40.75V14.1808H41.25H41.75V11.8551H41.25ZM41.25 14.1808L41.3557 14.6695C44.2912 14.0348 46.9071 14.2434 49.1048 14.9104L49.25 14.432L49.3952 13.9535C47.038 13.2381 44.2495 13.0207 41.1443 13.692L41.25 14.1808ZM16.75 14.0933H17.25V11.8551H16.75H16.25V14.0933H16.75ZM9.25 11.8551H8.75V15.0121H9.25H9.75V11.8551H9.25ZM9.25 15.0121L9.42228 15.4815C10.5255 15.0765 11.1893 14.7259 12.1528 14.5883L12.082 14.0933L12.0113 13.5983C10.9089 13.7559 10.0552 14.1839 9.07772 14.5427L9.25 15.0121ZM12.082 14.0933L12.1527 14.5883C13.6653 14.3722 15.4412 14.505 16.7159 14.5921L16.75 14.0933L16.7841 13.5945C15.5386 13.5093 13.6492 13.3644 12.0113 13.5983L12.082 14.0933ZM57.5 40.8939L57.9974 40.8429L57.0008 31.13L56.5034 31.181L56.006 31.232L57.0026 40.9449L57.5 40.8939ZM56.5034 31.181L57.0008 31.13L56.0042 21.4171L55.5068 21.4681L55.0094 21.5192L56.006 31.232L56.5034 31.181ZM18.75 9.8551H19.75V8.8551H18.75V9.8551ZM18.75 14.3551V15.3551H19.75V14.3551H18.75ZM16.75 14.3551H15.75V15.3551H16.75V14.3551ZM9.25 16.3551V17.3551H10.25V16.3551H9.25ZM7.25 16.3551H6.25V17.3551H7.25V16.3551ZM7.25 9.8551V8.8551H6.25V9.8551H7.25ZM51.25 9.8551H52.25V8.8551H51.25V9.8551ZM51.25 15.3551V16.3551H52.25V15.3551H51.25ZM49.25 15.3551H48.25V16.3551H49.25V15.3551ZM41.25 14.8551V15.8551H42.25V14.8551H41.25ZM39.25 14.8551H38.25V15.8551H39.25V14.8551ZM39.25 9.8551V8.8551H38.25V9.8551H39.25ZM39.5244 14.64L39.8221 15.5947L39.8255 15.5936L39.5244 14.64ZM51.7217 15.4398L52.1842 14.5532L52.1842 14.5532L51.7217 15.4398ZM55.3594 18.2337L56.1089 17.5717L56.1088 17.5717L55.3594 18.2337ZM56.9551 21.0541L57.9361 20.86L57.9339 20.8492L57.9315 20.8384L56.9551 21.0541ZM56.9902 21.2318L57.9766 21.0674L57.9742 21.0525L57.9712 21.0378L56.9902 21.2318ZM56.9941 21.2552L57.9907 21.1722L57.9873 21.1313L57.9805 21.0908L56.9941 21.2552ZM56.9961 21.2787L55.9995 21.3617L56.0003 21.3712L56.0013 21.3807L56.9961 21.2787ZM59 40.8168H60V40.7656L59.9948 40.7147L59 40.8168ZM59 42.8744L59.9989 42.9219L60 42.8982V42.8744H59ZM58.999 42.8949L59.9977 42.9475L59.9979 42.9424L58.999 42.8949ZM57.2793 47.6781L58.043 48.3237L58.043 48.3236L57.2793 47.6781ZM53.6572 49.8705L53.8998 50.8406L53.8998 50.8406L53.6572 49.8705ZM46.2695 48.431L45.6282 49.1983L45.6293 49.1992L46.2695 48.431ZM46.2041 48.3763L45.4055 48.9782L45.4746 49.0699L45.5628 49.1436L46.2041 48.3763ZM46.1533 48.3089L46.9519 47.7071L46.9495 47.7038L46.1533 48.3089ZM36.8779 36.1048L37.6741 35.4997L37.3739 35.1048H36.8779V36.1048ZM24.5791 36.1048V35.1048H24.1403L23.8432 35.4278L24.5791 36.1048ZM13.3018 48.3627L14.0366 49.0409L14.0377 49.0397L13.3018 48.3627ZM13.2549 48.4134L13.8639 49.2066L13.9317 49.1545L13.9897 49.0917L13.2549 48.4134ZM13.2002 48.4554L13.8002 49.2555L13.8092 49.2486L13.2002 48.4554ZM8.48633 50.1439L8.46843 51.1437H8.46848L8.48633 50.1439ZM4.5625 48.7767L3.97886 49.5887L3.97889 49.5887L4.5625 48.7767ZM1.97754 45.9134L1.11451 46.4186L1.11452 46.4186L1.97754 45.9134ZM1 42.8207L0.00345427 42.7376L0 42.7791V42.8207H1ZM1.00293 42.7855L0.00718242 42.6929L0.00638396 42.7025L1.00293 42.7855ZM3.00293 21.2855L2.00739 21.1912L2.00723 21.1929L3.00293 21.2855ZM3.01172 21.1927L2.0707 20.8544L2.02806 20.973L2.01618 21.0984L3.01172 21.1927ZM3.04297 21.1058L3.98401 21.4442L3.98596 21.4386L3.04297 21.1058ZM17.3213 14.14L17.4161 13.1445L17.4161 13.1445L17.3213 14.14ZM19.0459 14.3851L19.242 13.4045L19.242 13.4045L19.0459 14.3851ZM19.8877 14.6019L20.2717 13.6786L20.2478 13.6686L20.2235 13.66L19.8877 14.6019ZM20.085 14.6839L20.5555 13.8016L20.5132 13.779L20.4689 13.7606L20.085 14.6839ZM20.1143 14.6996L20.5999 13.8254L20.5924 13.8213L20.5848 13.8172L20.1143 14.6996ZM24.4434 17.1048L23.9577 17.979L24.1842 18.1048H24.4434V17.1048ZM35.5352 17.1048V18.1048H35.8219L36.0651 17.9529L35.5352 17.1048ZM39.3525 14.7191L39.8825 15.5671L39.8835 15.5665L39.3525 14.7191ZM39.4336 14.6683L39.1359 13.7137L39.0124 13.7522L38.9027 13.8209L39.4336 14.6683ZM15 23.1048H16V23.1048L15 23.1048ZM14.4619 21.6966L15.1376 20.9595L15.1375 20.9594L14.4619 21.6966ZM13.2871 21.2914L13.2372 20.2926L13.237 20.2926L13.2871 21.2914ZM12.082 21.8558L11.3472 21.1775L11.3472 21.1776L12.082 21.8558ZM11.5 23.6048L10.5 23.6048V23.6048H11.5ZM11.5 25.1048V26.1048H12.5V25.1048H11.5ZM7.875 26.6048L6.875 26.6046V26.6048H7.875ZM11.5 28.1048H12.5V27.1048H11.5V28.1048ZM11.5 29.6966H10.5V29.6967L11.5 29.6966ZM12.0693 31.3949L11.3516 32.0912L11.3518 32.0914L12.0693 31.3949ZM13.2227 31.8558L13.2591 32.8552H13.2591L13.2227 31.8558ZM15 29.514L16 29.5141V29.514H15ZM15 28.1048V27.1048H14V28.1048H15ZM16.5 28.1048V29.1048H16.5192L16.5384 29.1041L16.5 28.1048ZM16.7539 28.0951L16.7923 29.0943L16.814 29.0935L16.8357 29.0917L16.7539 28.0951ZM17.9482 27.6117L18.6424 28.3315L18.6425 28.3314L17.9482 27.6117ZM18.375 26.6048H19.375V26.6047L18.375 26.6048ZM17.9482 25.598L18.6424 24.8782L18.6424 24.8782L17.9482 25.598ZM16.7539 25.1156L16.8357 24.1189L16.816 24.1173L16.7962 24.1165L16.7539 25.1156ZM16.5 25.1048L16.5423 24.1057L16.5211 24.1048H16.5V25.1048ZM15 25.1048H14V26.1048H15V25.1048ZM45.9208 33.8551L45.8955 34.8548L45.9082 34.8551L45.9209 34.8551L45.9208 33.8551ZM45.7665 33.8512L45.716 34.8499L45.7286 34.8506L45.7412 34.8509L45.7665 33.8512ZM42.9247 31.0094L41.9251 31.0347L41.9254 31.0474L41.926 31.06L42.9247 31.0094ZM42.9208 30.8551H41.9208V30.8678L41.9212 30.8804L42.9208 30.8551ZM45.9208 27.8551L45.9461 26.8554L45.9335 26.8551H45.9208V27.8551ZM46.0751 27.859L46.1258 26.8603L46.1131 26.8597L46.1004 26.8593L46.0751 27.859ZM48.9208 30.8551L49.9204 30.8804L49.9208 30.8678V30.8551H48.9208ZM48.9169 31.0094L49.9156 31.06L49.9162 31.0474L49.9165 31.0347L48.9169 31.0094ZM41.25 29.3551L41.2247 30.3548L41.2373 30.3551H41.25V29.3551ZM41.0957 29.3512L41.0451 30.3499L41.0577 30.3506L41.0704 30.3509L41.0957 29.3512ZM38.2539 26.5094L37.2542 26.5347L37.2545 26.5474L37.2552 26.56L38.2539 26.5094ZM38.25 26.3551H37.25V26.3678L37.2503 26.3804L38.25 26.3551ZM41.25 23.3551L41.2753 22.3554L41.2626 22.3551H41.25V23.3551ZM41.4043 23.359L41.4549 22.3603L41.4422 22.3597L41.4296 22.3593L41.4043 23.359ZM44.2499 26.3551L45.2496 26.3804L45.2499 26.3678V26.3551H44.2499ZM44.246 26.5094L45.2447 26.56L45.2454 26.5474L45.2457 26.5347L44.246 26.5094ZM50.7498 29.3551L50.7245 30.3548L50.7372 30.3551H50.7499L50.7498 29.3551ZM50.5955 29.3512L50.545 30.3499L50.5576 30.3506L50.5702 30.3509L50.5955 29.3512ZM47.7538 26.5094L46.7541 26.5347L46.7544 26.5473L46.7551 26.56L47.7538 26.5094ZM47.7499 26.3551L46.7499 26.3551V26.3677L46.7502 26.3804L47.7499 26.3551ZM50.7498 23.3551L50.7752 22.3554L50.7625 22.3551H50.7498V23.3551ZM50.9041 23.359L50.9548 22.3603L50.9421 22.3597L50.9294 22.3593L50.9041 23.359ZM53.7498 26.3551L54.7495 26.3804L54.7498 26.3677V26.3551L53.7498 26.3551ZM53.7459 26.5094L54.7446 26.56L54.7453 26.5473L54.7456 26.5347L53.7459 26.5094ZM45.7499 24.8551L45.7246 25.8548L45.7373 25.8551L45.75 25.8551L45.7499 24.8551ZM45.5956 24.8512L45.5451 25.8499L45.5577 25.8506L45.5703 25.8509L45.5956 24.8512ZM42.7538 22.0094L41.7542 22.0347L41.7545 22.0474L41.7551 22.06L42.7538 22.0094ZM42.7499 21.8551H41.7499V21.8678L41.7503 21.8804L42.7499 21.8551ZM45.7499 18.8551L45.7752 17.8554L45.7626 17.8551H45.7499V18.8551ZM45.9042 18.859L45.9549 17.8603L45.9422 17.8597L45.9295 17.8593L45.9042 18.859ZM48.7499 21.8551L49.7495 21.8804L49.7499 21.8678V21.8551H48.7499ZM48.746 22.0094L49.7447 22.06L49.7453 22.0474L49.7456 22.0347L48.746 22.0094ZM49.25 14.432L49.5404 13.4751L48.25 13.0834V14.432H49.25ZM41.25 14.1808H42.25V12.9414L41.0387 13.2033L41.25 14.1808ZM16.75 14.0933L16.8182 13.0956L15.75 13.0226V14.0933H16.75ZM9.25 15.0121H10.25V13.5798L8.90544 14.0733L9.25 15.0121ZM18.75 9.8551H17.75V14.3551H18.75H19.75V9.8551H18.75ZM18.75 14.3551V13.3551H16.75V14.3551V15.3551H18.75V14.3551ZM9.25 16.3551V15.3551H7.25V16.3551V17.3551H9.25V16.3551ZM7.25 16.3551H8.25V9.8551H7.25H6.25V16.3551H7.25ZM7.25 9.8551V10.8551H18.75V9.8551V8.8551H7.25V9.8551ZM51.25 9.8551H50.25V15.3551H51.25H52.25V9.8551H51.25ZM51.25 15.3551V14.3551H49.25V15.3551V16.3551H51.25V15.3551ZM41.25 14.8551V13.8551H39.25V14.8551V15.8551H41.25V14.8551ZM39.25 14.8551H40.25V9.8551H39.25H38.25V14.8551H39.25ZM39.25 9.8551V10.8551H51.25V9.8551V8.8551H39.25V9.8551ZM51.7217 15.4398L51.2591 16.3264C52.6703 17.0627 53.8027 17.9819 54.6099 18.8958L55.3594 18.2337L56.1088 17.5717C55.1345 16.4687 53.8058 15.3993 52.1842 14.5532L51.7217 15.4398ZM55.3594 18.2337L54.6099 18.8958C55.3673 19.7533 55.83 20.5969 55.9786 21.2698L56.9551 21.0541L57.9315 20.8384C57.6843 19.7192 56.9973 18.5775 56.1089 17.5717L55.3594 18.2337ZM56.9551 21.0541L55.9741 21.2481L56.0092 21.4258L56.9902 21.2318L57.9712 21.0378L57.9361 20.86L56.9551 21.0541ZM56.9902 21.2318L56.0038 21.3962L56.0077 21.4196L56.9941 21.2552L57.9805 21.0908L57.9766 21.0674L56.9902 21.2318ZM56.9941 21.2552L55.9976 21.3383L55.9995 21.3617L56.9961 21.2787L57.9926 21.1956L57.9907 21.1722L56.9941 21.2552ZM56.9961 21.2787L56.0013 21.3807L58.0052 40.9188L59 40.8168L59.9948 40.7147L57.9909 21.1766L56.9961 21.2787ZM59 40.8168H58V42.8744H59H60V40.8168H59ZM59 42.8744L58.0011 42.8268L58.0002 42.8473L58.999 42.8949L59.9979 42.9424L59.9989 42.9219L59 42.8744ZM58.999 42.8949L58.0004 42.8423C57.9028 44.6962 57.3374 46.0602 56.5156 47.0325L57.2793 47.6781L58.043 48.3236C59.1882 46.9687 59.8807 45.1684 59.9976 42.9475L58.999 42.8949ZM57.2793 47.6781L56.5156 47.0325C55.6926 48.0061 54.5978 48.6045 53.4147 48.9003L53.6572 49.8705L53.8998 50.8406C55.4169 50.4613 56.9044 49.6705 58.043 48.3237L57.2793 47.6781ZM53.6572 49.8705L53.4147 48.9003C51.0331 49.4957 48.3417 48.8561 46.9097 47.6628L46.2695 48.431L45.6293 49.1992C47.605 50.8457 50.9697 51.5731 53.8998 50.8406L53.6572 49.8705ZM46.2695 48.431L46.9108 47.6637L46.8454 47.609L46.2041 48.3763L45.5628 49.1436L45.6282 49.1983L46.2695 48.431ZM46.2041 48.3763L47.0027 47.7745L46.9519 47.7071L46.1533 48.3089L45.3547 48.9108L45.4055 48.9782L46.2041 48.3763ZM46.1533 48.3089L46.9495 47.7038L37.6741 35.4997L36.8779 36.1048L36.0818 36.7099L45.3572 48.914L46.1533 48.3089ZM36.8779 36.1048V35.1048H24.5791V36.1048V37.1048H36.8779V36.1048ZM24.5791 36.1048L23.8432 35.4278L12.5658 47.6856L13.3018 48.3627L14.0377 49.0397L25.315 36.7819L24.5791 36.1048ZM13.3018 48.3627L12.567 47.6844L12.5201 47.7352L13.2549 48.4134L13.9897 49.0917L14.0366 49.0409L13.3018 48.3627ZM13.2549 48.4134L12.6459 47.6203L12.5912 47.6623L13.2002 48.4554L13.8092 49.2486L13.8639 49.2066L13.2549 48.4134ZM13.2002 48.4554L12.6002 47.6554C11.1385 48.7517 9.75379 49.1664 8.50418 49.1441L8.48633 50.1439L8.46848 51.1437C10.2218 51.175 12.0327 50.581 13.8002 49.2554L13.2002 48.4554ZM8.48633 50.1439L8.50422 49.1441C7.25261 49.1217 6.11356 48.66 5.14611 47.9647L4.5625 48.7767L3.97889 49.5887C5.20643 50.471 6.73174 51.1127 8.46843 51.1437L8.48633 50.1439ZM4.5625 48.7767L5.14614 47.9647C4.17772 47.2686 3.38749 46.3426 2.84055 45.4083L1.97754 45.9134L1.11452 46.4186C1.78587 47.5655 2.75767 48.711 3.97886 49.5887L4.5625 48.7767ZM1.97754 45.9134L2.84057 45.4083C2.29108 44.4695 2 43.5448 2 42.8548H1H0C0 44.0249 0.46159 45.3031 1.11451 46.4186L1.97754 45.9134ZM1 42.8548H2V42.8207H1H0V42.8548H1ZM1 42.8207L1.99655 42.9037L1.99948 42.8686L1.00293 42.7855L0.00638396 42.7025L0.00345427 42.7376L1 42.8207ZM1.00293 42.7855L1.99863 42.8781L3.99863 21.3781L3.00293 21.2855L2.00723 21.1929L0.00722849 42.6929L1.00293 42.7855ZM3.00293 21.2855L3.99847 21.3798L4.00726 21.287L3.01172 21.1927L2.01618 21.0984L2.00739 21.1912L3.00293 21.2855ZM3.01172 21.1927L3.95274 21.5311L3.98399 21.4442L3.04297 21.1058L2.10195 20.7675L2.0707 20.8544L3.01172 21.1927ZM17.3213 14.14L17.2265 15.1355C17.8755 15.1973 18.4298 15.2817 18.8498 15.3657L19.0459 14.3851L19.242 13.4045C18.7481 13.3058 18.1257 13.2121 17.4161 13.1445L17.3213 14.14ZM19.0459 14.3851L18.8498 15.3657C19.1524 15.4262 19.3955 15.4881 19.5519 15.5439L19.8877 14.6019L20.2235 13.66C19.9305 13.5556 19.5763 13.4714 19.242 13.4045L19.0459 14.3851ZM19.8877 14.6019L19.5037 15.5253L19.701 15.6073L20.085 14.6839L20.4689 13.7606L20.2717 13.6786L19.8877 14.6019ZM20.085 14.6839L19.6144 15.5663L19.6437 15.5819L20.1143 14.6996L20.5848 13.8172L20.5555 13.8016L20.085 14.6839ZM20.1143 14.6996L19.6286 15.5737L23.9577 17.979L24.4434 17.1048L24.929 16.2307L20.5999 13.8254L20.1143 14.6996ZM24.4434 17.1048V18.1048H35.5352V17.1048V16.1048H24.4434V17.1048ZM35.5352 17.1048L36.0651 17.9529L39.8825 15.5671L39.3525 14.7191L38.8226 13.8711L35.0052 16.2568L35.5352 17.1048ZM39.3525 14.7191L39.8835 15.5665L39.9645 15.5157L39.4336 14.6683L38.9027 13.8209L38.8216 13.8717L39.3525 14.7191ZM39.4336 14.6683L39.7313 15.623L39.8221 15.5947L39.5244 14.64L39.2267 13.6853L39.1359 13.7137L39.4336 14.6683ZM15 23.1048L16 23.1048C15.9999 22.1661 15.6624 21.4405 15.1376 20.9595L14.4619 21.6966L13.7862 22.4338C13.8596 22.5011 14 22.6729 14 23.1049L15 23.1048ZM14.4619 21.6966L15.1375 20.9594C14.6159 20.4814 13.9237 20.2583 13.2372 20.2926L13.2871 21.2914L13.337 22.2901C13.5333 22.2803 13.6902 22.3458 13.7863 22.4339L14.4619 21.6966ZM13.2871 21.2914L13.237 20.2926C12.5498 20.3271 11.8623 20.6196 11.3472 21.1775L12.082 21.8558L12.8168 22.5341C12.9594 22.3797 13.1465 22.2997 13.3372 22.2901L13.2871 21.2914ZM12.082 21.8558L11.3472 21.1776C10.8304 21.7375 10.5001 22.5508 10.5 23.6048L11.5 23.6048L12.5 23.6049C12.5 22.9834 12.6858 22.676 12.8169 22.534L12.082 21.8558ZM11.5 23.6048H10.5V25.1048H11.5H12.5V23.6048H11.5ZM11.5 25.1048V24.1048H10.125V25.1048V26.1048H11.5V25.1048ZM10.125 25.1048V24.1048C9.09527 24.1048 8.28005 24.379 7.70605 24.8736C7.13714 25.3637 6.87512 26.0151 6.875 26.6046L7.875 26.6048L8.875 26.605C8.875 26.6053 8.87504 26.5984 8.87792 26.5854C8.88074 26.5726 8.88593 26.5557 8.89504 26.5359C8.9126 26.4976 8.94626 26.445 9.01149 26.3888C9.13494 26.2824 9.44466 26.1048 10.125 26.1048V25.1048ZM7.875 26.6048H6.875C6.875 27.1944 7.13698 27.8459 7.70593 28.3361C8.27994 28.8307 9.09521 29.1048 10.125 29.1048V28.1048V27.1048C9.44453 27.1048 9.1348 26.9272 9.01138 26.8209C8.94618 26.7647 8.91254 26.7122 8.89501 26.6739C8.8859 26.6541 8.88072 26.6372 8.87791 26.6245C8.87503 26.6115 8.875 26.6045 8.875 26.6048H7.875ZM10.125 28.1048V29.1048H11.5V28.1048V27.1048H10.125V28.1048ZM11.5 28.1048H10.5V29.6966H11.5H12.5V28.1048H11.5ZM11.5 29.6966L10.5 29.6967C10.5001 30.7507 10.8311 31.5547 11.3516 32.0912L12.0693 31.3949L12.7871 30.6985C12.6874 30.5958 12.5001 30.3217 12.5 29.6965L11.5 29.6966ZM12.0693 31.3949L11.3518 32.0914C11.8712 32.6265 12.5654 32.8804 13.2591 32.8552L13.2227 31.8558L13.1862 30.8565C13.0324 30.8621 12.8944 30.8091 12.7869 30.6984L12.0693 31.3949ZM13.2227 31.8558L13.2591 32.8552C13.9188 32.8311 14.6199 32.5459 15.1518 31.9628C15.6919 31.3707 16 30.5378 16 29.5141L15 29.514L14 29.514C14 30.13 13.8216 30.4533 13.6743 30.6149C13.5187 30.7854 13.3312 30.8512 13.1862 30.8565L13.2227 31.8558ZM15 29.514H16V28.1048H15H14V29.514H15ZM15 28.1048V29.1048H16.5V28.1048V27.1048H15V28.1048ZM16.5 28.1048L16.5384 29.1041L16.7923 29.0943L16.7539 28.0951L16.7155 27.0958L16.4616 27.1056L16.5 28.1048ZM16.7539 28.0951L16.8357 29.0917C17.6107 29.0281 18.2171 28.7416 18.6424 28.3315L17.9482 27.6117L17.2541 26.8918C17.191 26.9527 17.0306 27.069 16.6721 27.0984L16.7539 28.0951ZM17.9482 27.6117L18.6425 28.3314C19.1304 27.8607 19.375 27.2325 19.375 26.6048H18.375H17.375C17.375 26.7135 17.3343 26.8145 17.2539 26.892L17.9482 27.6117ZM18.375 26.6048L19.375 26.6047C19.3749 25.9773 19.1307 25.349 18.6424 24.8782L17.9482 25.598L17.2541 26.3178C17.3342 26.3951 17.375 26.496 17.375 26.605L18.375 26.6048ZM17.9482 25.598L18.6424 24.8782C18.2161 24.4671 17.6091 24.1824 16.8357 24.1189L16.7539 25.1156L16.6721 26.1122C17.0321 26.1418 17.192 26.258 17.2541 26.3179L17.9482 25.598ZM16.7539 25.1156L16.7962 24.1165L16.5423 24.1057L16.5 25.1048L16.4577 26.1039L16.7116 26.1147L16.7539 25.1156ZM16.5 25.1048V24.1048H15V25.1048V26.1048H16.5V25.1048ZM15 25.1048H16V23.1048H15H14V25.1048H15ZM45.9208 33.8551L45.9461 32.8554L45.7918 32.8515L45.7665 33.8512L45.7412 34.8509L45.8955 34.8548L45.9208 33.8551ZM45.7665 33.8512L45.817 32.8525C44.7955 32.8008 43.9752 31.9806 43.9235 30.9588L42.9247 31.0094L41.926 31.06C42.0297 33.1065 43.6691 34.7465 45.716 34.8499L45.7665 33.8512ZM42.9247 31.0094L43.9244 30.9841L43.9205 30.8298L42.9208 30.8551L41.9212 30.8804L41.9251 31.0347L42.9247 31.0094ZM42.9208 30.8551H43.9208C43.9208 29.7505 44.8163 28.8551 45.9208 28.8551V27.8551V26.8551C43.7117 26.8551 41.9208 28.646 41.9208 30.8551H42.9208ZM45.9208 27.8551L45.8955 28.8548L46.0498 28.8587L46.0751 27.859L46.1004 26.8593L45.9461 26.8554L45.9208 27.8551ZM46.0751 27.859L46.0244 28.8577C47.0803 28.9114 47.9208 29.7856 47.9208 30.8551H48.9208H49.9208C49.9208 28.7147 48.2398 26.9677 46.1258 26.8603L46.0751 27.859ZM48.9208 30.8551L47.9211 30.8298L47.9172 30.9841L48.9169 31.0094L49.9165 31.0347L49.9204 30.8804L48.9208 30.8551ZM48.9169 31.0094L47.9181 30.9588C47.8647 32.0145 46.9905 32.855 45.9207 32.8551L45.9208 33.8551L45.9209 34.8551C48.061 34.8548 49.8085 33.1744 49.9156 31.06L48.9169 31.0094ZM41.25 29.3551L41.2753 28.3554L41.121 28.3515L41.0957 29.3512L41.0704 30.3509L41.2247 30.3548L41.25 29.3551ZM41.0957 29.3512L41.1463 28.3525C40.1248 28.3007 39.3044 27.4804 39.2526 26.4588L38.2539 26.5094L37.2552 26.56C37.3589 28.6065 38.9985 30.2462 41.0451 30.3499L41.0957 29.3512ZM38.2539 26.5094L39.2536 26.4841L39.2497 26.3298L38.25 26.3551L37.2503 26.3804L37.2542 26.5347L38.2539 26.5094ZM38.25 26.3551H39.25C39.25 25.2505 40.1454 24.3551 41.25 24.3551V23.3551V22.3551C39.0408 22.3551 37.25 24.146 37.25 26.3551H38.25ZM41.25 23.3551L41.2247 24.3548L41.3789 24.3587L41.4043 23.359L41.4296 22.3593L41.2753 22.3554L41.25 23.3551ZM41.4043 23.359L41.3537 24.3577C42.4096 24.4112 43.2499 25.2853 43.2499 26.3551H44.2499H45.2499C45.2499 24.2147 43.5692 22.4674 41.4549 22.3603L41.4043 23.359ZM44.2499 26.3551L43.2502 26.3298L43.2463 26.4841L44.246 26.5094L45.2457 26.5347L45.2496 26.3804L44.2499 26.3551ZM44.246 26.5094L43.2473 26.4588C43.1938 27.5147 42.3196 28.3551 41.25 28.3551V29.3551V30.3551C43.3904 30.3551 45.1376 28.6743 45.2447 26.56L44.246 26.5094ZM50.7498 29.3551L50.7751 28.3554L50.6208 28.3515L50.5955 29.3512L50.5702 30.3509L50.7245 30.3548L50.7498 29.3551ZM50.5955 29.3512L50.6461 28.3525C49.6245 28.3008 48.8042 27.4805 48.7525 26.4588L47.7538 26.5094L46.7551 26.56C46.8587 28.6066 48.4983 30.2464 50.545 30.3499L50.5955 29.3512ZM47.7538 26.5094L48.7535 26.4841L48.7496 26.3298L47.7499 26.3551L46.7502 26.3804L46.7541 26.5347L47.7538 26.5094ZM47.7499 26.3551L48.7499 26.3551C48.7499 25.2505 49.6454 24.3551 50.7498 24.3551V23.3551V22.3551C48.5407 22.3551 46.7499 24.146 46.7499 26.3551L47.7499 26.3551ZM50.7498 23.3551L50.7245 24.3548L50.8788 24.3587L50.9041 23.359L50.9294 22.3593L50.7752 22.3554L50.7498 23.3551ZM50.9041 23.359L50.8535 24.3577C51.9093 24.4113 52.7498 25.2855 52.7498 26.3551L53.7498 26.3551L54.7498 26.3551C54.7497 24.2147 53.0689 22.4675 50.9548 22.3603L50.9041 23.359ZM53.7498 26.3551L52.7501 26.3298L52.7462 26.4841L53.7459 26.5094L54.7456 26.5347L54.7495 26.3804L53.7498 26.3551ZM53.7459 26.5094L52.7472 26.4588C52.6937 27.5146 51.8196 28.355 50.7498 28.3551L50.7498 29.3551L50.7499 30.3551C52.8901 30.355 54.6376 28.6744 54.7446 26.56L53.7459 26.5094ZM45.7499 24.8551L45.7752 23.8554L45.6209 23.8515L45.5956 24.8512L45.5703 25.8509L45.7246 25.8548L45.7499 24.8551ZM45.5956 24.8512L45.6461 23.8525C44.6246 23.8008 43.8043 22.9805 43.7526 21.9588L42.7538 22.0094L41.7551 22.06C41.8588 24.1065 43.4983 25.7464 45.5451 25.8499L45.5956 24.8512ZM42.7538 22.0094L43.7535 21.9841L43.7496 21.8298L42.7499 21.8551L41.7503 21.8804L41.7542 22.0347L42.7538 22.0094ZM42.7499 21.8551H43.7499C43.7499 20.7505 44.6454 19.8551 45.7499 19.8551V18.8551V17.8551C43.5408 17.8551 41.7499 19.646 41.7499 21.8551H42.7499ZM45.7499 18.8551L45.7246 19.8548L45.8789 19.8587L45.9042 18.859L45.9295 17.8593L45.7752 17.8554L45.7499 18.8551ZM45.9042 18.859L45.8535 19.8577C46.9095 19.9113 47.7499 20.7855 47.7499 21.8551H48.7499H49.7499C49.7499 19.7147 48.069 17.9675 45.9549 17.8603L45.9042 18.859ZM48.7499 21.8551L47.7502 21.8298L47.7463 21.9841L48.746 22.0094L49.7456 22.0347L49.7495 21.8804L48.7499 21.8551ZM48.746 22.0094L47.7472 21.9588C47.6938 23.0146 46.8196 23.855 45.7498 23.8551L45.7499 24.8551L45.75 25.8551C47.8902 25.855 49.6376 24.1744 49.7447 22.06L48.746 22.0094ZM41.25 14.1808H40.25V14.8551H41.25H42.25V14.1808H41.25ZM39.5244 14.64L39.8255 15.5936C40.3823 15.4178 40.9277 15.2735 41.4613 15.1582L41.25 14.1808L41.0387 13.2033C40.4436 13.332 39.8382 13.4922 39.2233 13.6864L39.5244 14.64ZM49.25 14.432L48.9596 15.3889C49.7897 15.6408 50.5582 15.9607 51.2591 16.3264L51.7217 15.4398L52.1842 14.5532C51.376 14.1315 50.4924 13.764 49.5404 13.4751L49.25 14.432ZM49.25 15.3551H50.25V14.432H49.25H48.25V15.3551H49.25ZM3.04297 21.1058L3.98596 21.4386C5.03261 18.4731 7.1889 16.8338 9.59456 15.9508L9.25 15.0121L8.90544 14.0733C6.08402 15.1089 3.39095 17.1153 2.09998 20.773L3.04297 21.1058ZM9.25 15.0121H8.25V16.3551H9.25H10.25V15.0121H9.25ZM16.75 14.0933L16.6818 15.091C16.8698 15.1039 17.0517 15.1188 17.2265 15.1355L17.3213 14.14L17.4161 13.1445C17.2239 13.1262 17.0243 13.1097 16.8182 13.0956L16.75 14.0933ZM16.75 14.3551H17.75V14.0933H16.75H15.75V14.3551H16.75Z" fill="white" mask="url(#path-1-inside-1_144_1618)"/>
</svg>
