<svg width="60" height="60" viewBox="0 0 60 60" fill="none" xmlns="http://www.w3.org/2000/svg">
<path d="M44.4 12C48.8732 12 52.632 15.0594 53.6977 19.2H58.2C59.1941 19.2 60 20.0059 60 21C60 21.9941 59.1941 22.8 58.2 22.8H54V40.8C54 43.0366 52.4703 44.916 50.4 45.4488V48H43.2V45.6H16.8V48H9.6V45.4488C7.52972 44.916 6 43.0366 6 40.8V22.8H1.8C0.805888 22.8 0 21.9941 0 21C0 20.0059 0.805888 19.2 1.8 19.2H6.30234C7.36804 15.0594 11.1268 12 15.6 12H44.4ZM19.2 14.4C18.5373 14.4 18 14.9373 18 15.6C18 16.2627 18.5373 16.8 19.2 16.8H40.8C41.4627 16.8 42 16.2627 42 15.6C42 14.9373 41.4627 14.4 40.8 14.4H19.2Z" fill="white"/>
</svg>
