<svg width="60" height="62" viewBox="0 0 60 62" fill="none" xmlns="http://www.w3.org/2000/svg">
<path d="M57 53.7046C57 57.7714 53.7032 61.0682 49.6364 61.0682H10.3636C6.29681 61.0682 3 57.7714 3 53.7046V18.1136H57V53.7046ZM30 23.0227C21.8664 23.0227 15.2727 29.6164 15.2727 37.75C15.2727 45.8837 21.8664 52.4773 30 52.4773C38.1336 52.4773 44.7273 45.8837 44.7273 37.75C44.7273 29.6164 38.1336 23.0227 30 23.0227ZM30 24.8636C37.1169 24.8636 42.8864 30.6331 42.8864 37.75C42.8864 44.8669 37.1169 50.6364 30 50.6364C22.8831 50.6364 17.1136 44.8669 17.1136 37.75C17.1136 30.6331 22.8831 24.8636 30 24.8636Z" fill="white"/>
<path d="M49.6364 0.931824C53.7032 0.931824 57 4.22864 57 8.29546V15.6591H3V8.29546C3 4.22864 6.29681 0.931824 10.3636 0.931824H49.6364ZM36.75 9.52273C35.7333 9.52273 34.9091 10.3469 34.9091 11.3636C34.9091 12.3803 35.7333 13.2046 36.75 13.2046H40.4318C41.4485 13.2046 42.2727 12.3803 42.2727 11.3636C42.2727 10.3469 41.4485 9.52273 40.4318 9.52273H36.75ZM46.5682 9.52273C45.5515 9.52273 44.7273 10.3469 44.7273 11.3636C44.7273 12.3803 45.5515 13.2046 46.5682 13.2046H50.25C51.2667 13.2046 52.0909 12.3803 52.0909 11.3636C52.0909 10.3469 51.2667 9.52273 50.25 9.52273H46.5682Z" fill="white"/>
</svg>
